<svg xmlns="http://www.w3.org/2000/svg" viewBox="0 0 512 512">
  <defs>
    <linearGradient id="bg" x1="70" y1="52" x2="438" y2="458" gradientUnits="userSpaceOnUse">
      <stop stop-color="#ffffff"/>
      <stop offset=".45" stop-color="#f4f7ff"/>
      <stop offset="1" stop-color="#e8f7ff"/>
    </linearGradient>
    <linearGradient id="mark" x1="126" y1="112" x2="386" y2="400" gradientUnits="userSpaceOnUse">
      <stop stop-color="#6C63FF"/>
      <stop offset=".52" stop-color="#38BDF8"/>
      <stop offset="1" stop-color="#22C55E"/>
    </linearGradient>
    <filter id="shadow" x="42" y="48" width="428" height="420" filterUnits="userSpaceOnUse">
      <feDropShadow dx="0" dy="26" stdDeviation="30" flood-color="#0F172A" flood-opacity=".16"/>
    </filter>
  </defs>
  <rect width="512" height="512" rx="116" fill="url(#bg)"/>
  <g filter="url(#shadow)">
    <path d="M256 100c78 0 142 63 142 141 0 99-111 161-132 172-6 3-14 3-20 0-21-11-132-73-132-172 0-78 64-141 142-141Z" fill="url(#mark)"/>
    <path d="M199 245c30 30 64 57 104 82 18-44 31-91 39-140" fill="none" stroke="#fff" stroke-width="34" stroke-linecap="round" stroke-linejoin="round"/>
    <circle cx="256" cy="198" r="28" fill="#fff" opacity=".92"/>
  </g>
</svg>
